<svg xmlns="http://www.w3.org/2000/svg" viewBox="0 0 512 512">
  <defs>
    <linearGradient id="g" x1="0" y1="0" x2="1" y2="1">
      <stop offset="0" stop-color="#4f8cff"/>
      <stop offset="1" stop-color="#27d39e"/>
    </linearGradient>
  </defs>
  <rect width="512" height="512" rx="112" fill="#0b1020"/>
  <circle cx="256" cy="256" r="180" fill="url(#g)" opacity="0.22"/>
  <path fill="#ffffff" opacity="0.92" d="M175 180c0-12 10-22 22-22h118c12 0 22 10 22 22v25h8c16 0 28 13 28 28v121c0 16-12 28-28 28H167c-16 0-28-12-28-28V233c0-15 12-28 28-28h8v-25zm44 25h74v-3h-74v3zm-28 44v105h128V249H191zm16 24h96v18h-96v-18zm0 38h66v18h-66v-18z"/>
  <text x="256" y="430" text-anchor="middle" font-family="ui-sans-serif, system-ui, -apple-system, Segoe UI, Roboto, Arial" font-size="42" fill="#ffffff" opacity="0.92">&#8369;</text>
</svg>
